<svg width="17" height="17" viewBox="0 0 17 17" fill="none" xmlns="http://www.w3.org/2000/svg">
<path fill-rule="evenodd" clip-rule="evenodd" d="M8.5 17C6.81886 17 5.17547 16.5015 3.77766 15.5675C2.37984 14.6335 1.29037 13.306 0.647028 11.7528C0.00368288 10.1996 -0.164645 8.49057 0.163329 6.84173C0.491303 5.1929 1.30085 3.67834 2.4896 2.4896C3.67834 1.30085 5.1929 0.491303 6.84173 0.163329C8.49057 -0.164645 10.1996 0.00368288 11.7528 0.647028C13.306 1.29037 14.6335 2.37984 15.5675 3.77766C16.5015 5.17547 17 6.81886 17 8.5C17 10.7543 16.1045 12.9163 14.5104 14.5104C12.9163 16.1045 10.7543 17 8.5 17ZM13.2086 14.5714C13.145 14.4779 13.0649 14.3618 13.0005 14.2711C12.8884 14.1116 12.7763 13.9521 12.6767 13.7943C12.6711 13.787 12.1165 13.043 10.119 12.9524C9.95714 12.9551 9.7964 12.9246 9.64678 12.8627C9.49715 12.8008 9.36184 12.7088 9.24921 12.5925C9.13658 12.4761 9.04905 12.3379 8.99203 12.1863C8.93501 12.0348 8.90971 11.8731 8.91772 11.7114L8.90476 11.3333C8.90476 11.2787 8.89829 11.3932 8.90476 11.3333V10.9286L9.30953 10.5238C9.65184 10.3584 9.9772 10.1599 10.281 9.93124L10.3356 9.8936C10.5744 9.74567 10.7771 9.54609 10.9286 9.30953L10.9431 9.15531C11.1265 8.27085 11.2568 7.37621 11.3333 6.47619C11.3333 4.56976 10.4064 3.64286 8.5 3.64286C6.56726 3.64286 5.66667 4.54305 5.66667 6.47619C5.74187 7.37594 5.87204 8.27025 6.05645 9.1541L6.07062 9.29657C6.21086 9.54183 6.41312 9.74591 6.65712 9.88834L6.6976 9.91343C7.01279 10.1415 7.34469 10.3455 7.69048 10.5238L8.09524 10.9286V11.3333C8.10091 11.3892 8.09524 11.2742 8.09524 11.3333L8.08188 11.7114C8.09101 11.8705 8.06763 12.0298 8.01317 12.1796C7.95872 12.3294 7.87432 12.4666 7.76514 12.5827C7.65595 12.6988 7.52426 12.7915 7.37809 12.855C7.23192 12.9186 7.07434 12.9517 6.91495 12.9524C4.90896 13.0333 4.32731 13.7931 4.32448 13.7931C4.22248 13.955 4.11076 14.1124 3.99784 14.2723C3.93429 14.363 3.85415 14.4787 3.79019 14.5722C5.13557 15.6215 6.79284 16.1913 8.49899 16.1913C10.2051 16.1913 11.8624 15.6215 13.2078 14.5722L13.2086 14.5714ZM8.5 0.809528C6.96567 0.808409 5.46613 1.26661 4.19447 2.12512C2.92281 2.98364 1.93725 4.20316 1.36469 5.62666C0.792141 7.05016 0.65881 8.61247 0.98187 10.1124C1.30493 11.6123 2.06959 12.9812 3.17738 14.0428C3.332 13.8141 3.49715 13.5858 3.64286 13.3571C3.64286 13.3571 4.31881 12.2469 6.88095 12.1429C7.14203 12.1429 7.27236 11.972 7.27236 11.7114C7.27236 11.5005 7.27236 11.3333 7.27236 11.3333C7.27236 11.2807 7.26386 11.2334 7.26143 11.1824C6.90234 11.0101 6.55842 10.8078 6.23334 10.5776C6.23334 10.5776 5.26191 9.98022 5.26191 9.30953C5.07155 8.37383 4.9364 7.42776 4.85715 6.47619C4.85715 4.59648 5.661 2.83334 8.5 2.83334C11.301 2.83334 12.1429 4.59648 12.1429 6.47619C12.0621 7.42759 11.927 8.37358 11.7381 9.30953C11.7381 9.9616 10.7667 10.5776 10.7667 10.5776C10.447 10.8225 10.1019 11.0323 9.73736 11.2034C9.73736 11.2475 9.72805 11.288 9.72805 11.3333C9.72805 11.3333 9.72805 11.5005 9.72805 11.7114C9.72805 11.972 9.85757 12.1429 10.1186 12.1429C12.7188 12.2594 13.3567 13.3571 13.3567 13.3571C13.5025 13.5858 13.6672 13.8141 13.8218 14.0428C14.9298 12.9814 15.6946 11.6125 16.0178 10.1126C16.341 8.61267 16.2078 7.05034 15.6353 5.62678C15.0628 4.20323 14.0773 2.98365 12.8056 2.12511C11.5339 1.26657 10.0344 0.80837 8.5 0.809528Z" fill="#99B4BF"/>
</svg>
