<svg width="20" height="20" viewBox="0 0 20 20" fill="none" xmlns="http://www.w3.org/2000/svg">
<path d="M18.1584 4.83575H15.7268V2.07114C15.7268 1.63395 15.5955 1.29463 15.3159 1.08881L15.3156 1.08859C15.0057 0.862164 14.5798 0.846724 14.0794 1.00446L1.17396 4.77393C1.17395 4.77393 1.17394 4.77393 1.17393 4.77394C0.994326 4.82634 0.891671 4.99755 0.906616 5.1716C0.904392 5.17973 0.9 5.19659 0.9 5.21703V18.1561C0.9 18.6766 1.32338 19.1 1.84386 19.1H18.1584C18.6789 19.1 19.1022 18.6766 19.1022 18.1561V5.7796C19.1022 5.25913 18.6789 4.83575 18.1584 4.83575ZM14.3002 1.73451L14.3002 1.73453L14.3021 1.73393C14.4479 1.68813 14.5721 1.66519 14.6703 1.66269C14.7705 1.66013 14.8316 1.6791 14.8642 1.70319L14.8644 1.70338C14.8952 1.72595 14.9223 1.77179 14.9406 1.8444C14.9584 1.91487 14.9643 1.99642 14.9643 2.07114V4.83575H3.68266L14.3002 1.73451ZM18.3397 14.3994H13.0953C12.9956 14.3994 12.914 14.3181 12.914 14.2182V9.71759C12.914 9.61768 12.9956 9.53631 13.0953 9.53631H18.3397V14.3994ZM18.1584 18.3374H1.84386C1.74425 18.3374 1.66257 18.2561 1.66257 18.1561V5.59832H18.1584C18.258 5.59832 18.3397 5.67969 18.3397 5.7796V8.77374H13.0953C12.5748 8.77374 12.1514 9.19712 12.1514 9.71759V14.2182C12.1514 14.7386 12.5748 15.162 13.0953 15.162H18.3397V18.1561C18.3397 18.2561 18.258 18.3374 18.1584 18.3374Z" fill="#99B4BF" stroke="#99B4BF" stroke-width="0.2"/>
<path d="M15.2623 13.252C15.9886 13.252 16.5803 12.6611 16.5803 11.9346C16.5803 11.2083 15.9887 10.6167 15.2623 10.6167C14.5359 10.6167 13.9449 11.2077 13.9449 11.9346C13.9449 12.6616 14.5354 13.252 15.2623 13.252ZM15.2623 11.3798C15.5688 11.3798 15.8177 11.6287 15.8177 11.9352C15.8177 12.2416 15.5689 12.49 15.2623 12.49C14.9564 12.49 14.7075 12.2411 14.7075 11.9352C14.7075 11.6291 14.9565 11.3798 15.2623 11.3798Z" fill="#99B4BF" stroke="#99B4BF" stroke-width="0.2"/>
</svg>
