<svg width="13" height="22" viewBox="0 0 13 22" fill="none" xmlns="http://www.w3.org/2000/svg">
<path d="M2.3898 4.51385C2.42399 5.26317 2.74798 5.97846 3.29703 6.49312L5.01635 8.10555C5.38751 8.45282 5.64428 8.90178 5.76694 9.38909C5.76694 9.79369 6.09505 10.1218 6.49961 10.1218C6.90492 10.1218 7.23303 9.79365 7.23303 9.38909C7.35553 8.90178 7.6125 8.45286 7.98341 8.10555L9.70294 6.49312C10.252 5.97846 10.576 5.26317 10.6102 4.51385H2.3898Z" fill="#253C59"/>
<path d="M6.4996 11.1467C6.23397 11.1467 6.01892 11.3617 6.01892 11.6274C6.01892 11.893 6.23397 12.1081 6.4996 12.1081C6.76601 12.1081 6.98085 11.893 6.98085 11.6274C6.98085 11.3617 6.76597 11.1467 6.4996 11.1467Z" fill="#253C59"/>
<path d="M6.4996 13.7466C6.23397 13.7466 6.01892 13.9624 6.01892 14.2277C6.01892 14.493 6.23397 14.7087 6.4996 14.7087C6.76601 14.7087 6.98085 14.493 6.98085 14.2277C6.98085 13.9624 6.76597 13.7466 6.4996 13.7466Z" fill="#253C59"/>
<path d="M13 0H0V2.59998H0.437099C0.436028 2.62548 0.433598 2.65023 0.433598 2.67536V4.56821C0.433598 5.90644 0.987263 7.18479 1.96341 8.0996L3.68272 9.71203C3.82128 9.84207 3.90016 10.0227 3.90016 10.213V10.99C3.90016 11.1803 3.82128 11.3613 3.68272 11.4914L1.96341 13.1038C0.987263 14.0186 0.433598 15.2966 0.433598 16.6352V18.4889H0V21.0889H13V18.4889H12.5664V16.6352C12.5664 15.2966 12.0127 14.0186 11.0366 13.1038L9.31703 11.4914C9.17868 11.3613 9.0998 11.1803 9.0998 10.99V10.213C9.0998 10.0227 9.17868 9.84207 9.31654 9.71203L11.0366 8.0996C12.0128 7.18479 12.5664 5.90644 12.5664 4.56821V2.67536C12.5664 2.65023 12.5641 2.62548 12.5629 2.59998H13L13 0ZM8.01648 10.213V10.99C8.01648 11.4795 8.21917 11.9473 8.57604 12.2813L10.2956 13.8937C11.053 14.6038 11.4831 15.5966 11.4831 16.6352V18.4889H9.81731L7.15118 15.8227C6.79131 15.4632 6.20865 15.4632 5.84824 15.8227L3.18269 18.4889H1.51687V16.6352C1.51687 15.5966 1.94681 14.6038 2.70436 13.8941L4.42388 12.2813C4.78083 11.9473 4.98344 11.4795 4.98344 10.99V10.213C4.98344 9.72344 4.78078 9.25607 4.42388 8.92132L2.70436 7.30893C1.94676 6.59916 1.51687 5.60675 1.51687 4.56821V2.67536C1.51687 2.64949 1.52149 2.62548 1.52445 2.59998H11.4755C11.4785 2.62548 11.4831 2.64949 11.4831 2.67536V4.56821C11.4831 5.60679 11.053 6.59916 10.2956 7.30893L8.57604 8.92132C8.21917 9.25607 8.01648 9.72344 8.01648 10.213Z" fill="#253C59"/>
</svg>
