
<svg width="21" height="22" viewBox="0 0 21 22" fill="none" xmlns="http://www.w3.org/2000/svg">
<path d="M18.0628 21.0259H2.93723C2.20436 21.0671 1.48482 20.8176 0.934865 20.3314C0.384914 19.8453 0.0489719 19.1618 0 18.4294V5.50559C0.0486761 4.77299 0.384491 4.0892 0.934474 3.60279C1.48446 3.11639 2.20417 2.86667 2.93723 2.90791H3.48003C3.63583 2.90791 3.78525 2.9698 3.89541 3.07996C4.00558 3.19013 4.06747 3.33955 4.06747 3.49535C4.06747 3.65115 4.00558 3.80057 3.89541 3.91074C3.78525 4.02091 3.63583 4.0828 3.48003 4.0828H2.93723C2.51589 4.04304 2.09571 4.1696 1.76643 4.43544C1.43714 4.70128 1.22485 5.08534 1.17489 5.50559V18.4294C1.22513 18.8494 1.43754 19.2332 1.7668 19.4988C2.09605 19.7644 2.51607 19.8908 2.93723 19.851H18.0628C18.4839 19.8908 18.9039 19.7644 19.2332 19.4988C19.5625 19.2332 19.7749 18.8494 19.8251 18.4294V5.50559C19.7752 5.08534 19.5629 4.70128 19.2336 4.43544C18.9043 4.1696 18.4841 4.04304 18.0628 4.0828H17.52C17.3642 4.0828 17.2148 4.02091 17.1046 3.91074C16.9944 3.80057 16.9325 3.65115 16.9325 3.49535C16.9325 3.33955 16.9944 3.19013 17.1046 3.07996C17.2148 2.9698 17.3642 2.90791 17.52 2.90791H18.0628C18.7958 2.86667 19.5155 3.11639 20.0655 3.60279C20.6155 4.0892 20.9513 4.77299 21 5.50559V18.4294C20.951 19.1618 20.6151 19.8453 20.0651 20.3314C19.5152 20.8176 18.7956 21.0671 18.0628 21.0259Z" fill="#253C59"/>
<path d="M14.4417 8.85868L10.9171 12.3834C10.8086 12.494 10.6608 12.5574 10.5059 12.5596C10.4272 12.5595 10.3494 12.5439 10.2768 12.5137C10.2042 12.4834 10.1383 12.4391 10.0829 12.3834L6.55823 8.85868C6.44761 8.74806 6.38547 8.59803 6.38547 8.44159C6.38547 8.28515 6.44761 8.13512 6.55823 8.02451C6.66885 7.91389 6.81888 7.85174 6.97532 7.85174C7.13175 7.85174 7.28178 7.91389 7.3924 8.02451L9.90667 10.5376V0.587445C9.90909 0.432401 9.97176 0.284385 10.0814 0.174739C10.1911 0.0650922 10.3391 0.00242302 10.4941 0C10.6499 0 10.7993 0.0618912 10.9095 0.172059C11.0197 0.282226 11.0816 0.431645 11.0816 0.587445V10.5623L13.6076 8.02451C13.6623 7.96973 13.7274 7.92629 13.7989 7.89664C13.8705 7.867 13.9472 7.85174 14.0247 7.85174C14.1021 7.85174 14.1788 7.867 14.2504 7.89664C14.322 7.92629 14.387 7.96973 14.4417 8.02451C14.4965 8.07928 14.54 8.1443 14.5696 8.21587C14.5993 8.28743 14.6145 8.36413 14.6145 8.44159C14.6145 8.51905 14.5993 8.59575 14.5696 8.66732C14.54 8.73888 14.4965 8.80391 14.4417 8.85868Z" fill="#253C59"/>
</svg>