<svg width="21" height="21" viewBox="0 0 21 21" fill="none" xmlns="http://www.w3.org/2000/svg">
<path d="M17.2174 3.78286C13.5072 0.0723784 7.49251 0.0723784 3.78263 3.78286C0.884036 6.68122 0.249984 10.9863 1.88048 14.5M3.78263 17.217C7.49251 20.9275 13.5075 20.9275 17.2174 17.217C19.9798 14.4548 20.6855 10.4148 19.3343 7M3.78263 17.217L5.5 16M3.78263 17.217L3.5 19.5" stroke="#C99432" strokeWidth="1.5" strokeMiterlimit="10"/>
<path d="M18 1.5L17.5 4L15 4.5" stroke="#C99432" strokeWidth="1.5"/>
<path d="M8.0484 15.4031V5.27985" stroke="#C99432" strokeWidth="1.5" strokeMiterlimit="10"/>
<path d="M7.41816 5.90317H10.1936C10.1936 5.90317 13.5645 5.59672 13.5645 8.66121C13.5645 11.7257 10.1936 11.4193 10.1936 11.4193H6.51617" stroke="#C99432" strokeWidth="1.5" strokeMiterlimit="10"/>
<path d="M6.51617 13.2579H10.5" stroke="#C99432" strokeWidth="1.5" strokeMiterlimit="10"/>
</svg>
