<svg width="44" height="39" viewBox="0 0 44 39" fill="none" xmlns="http://www.w3.org/2000/svg">
<path d="M35.3601 11.0437V4.87235C35.3601 3.21549 34.017 1.87234 32.3601 1.87234H11.8304C10.1735 1.87234 8.8304 3.21549 8.8304 4.87235V11.0437M35.3601 11.0437H37.6382C40.3996 11.0437 42.6382 13.2823 42.6382 16.0437V25.327C42.6382 28.0884 40.3996 30.327 37.6382 30.327H35.3601M35.3601 11.0437H8.8304M32.7776 30.327V34.617C32.7776 36.2739 31.4344 37.617 29.7776 37.617H14.6477C12.9909 37.617 11.6477 36.2739 11.6477 34.617V30.327M32.7776 30.327V25.1534M32.7776 30.327H35.3601M11.6477 30.327V25.1534M11.6477 30.327H8.8304M8.8304 11.0437H6.78711C4.02568 11.0437 1.78711 13.2823 1.78711 16.0437V25.327C1.78711 28.0884 4.02568 30.327 6.78711 30.327H8.8304M32.7776 25.1534V25.1534C34.2039 25.1534 35.3601 26.3097 35.3601 27.736V30.327M32.7776 25.1534H11.6477M11.6477 25.1534V25.1534C10.0918 25.1534 8.8304 26.4148 8.8304 27.9707V30.327M29.141 17.1579H33.8316C34.6758 17.1579 35.3601 16.4735 35.3601 15.6293V15.6293C35.3601 14.7851 34.6758 14.1008 33.8316 14.1008H29.1411C28.2969 14.1008 27.6125 14.7851 27.6125 15.6293V15.6293C27.6125 16.4735 28.2969 17.1579 29.141 17.1579Z" stroke="white" stroke-width="2"/>
</svg>
