<svg width="40" height="40" viewBox="0 0 40 40" fill="none" xmlns="http://www.w3.org/2000/svg">
<path fill-rule="evenodd" clip-rule="evenodd" d="M20 40C16.0444 40 12.1776 38.827 8.8886 36.6294C5.59962 34.4318 3.03617 31.3082 1.52242 27.6537C0.00866561 23.9991 -0.387401 19.9778 0.384303 16.0982C1.15601 12.2186 3.06082 8.65492 5.85787 5.85787C8.65492 3.06082 12.2186 1.15601 16.0982 0.384303C19.9778 -0.387401 23.9991 0.00866561 27.6537 1.52242C31.3082 3.03617 34.4318 5.59962 36.6294 8.8886C38.827 12.1776 40 16.0444 40 20C40 25.3043 37.8929 30.3914 34.1421 34.1421C30.3914 37.8929 25.3043 40 20 40ZM31.079 34.2857C30.9295 34.0657 30.741 33.7924 30.5895 33.579C30.3257 33.2038 30.0619 32.8286 29.8276 32.4571C29.8143 32.44 28.5095 30.6895 23.8095 30.4762C23.4286 30.4827 23.0504 30.4108 22.6983 30.2651C22.3462 30.1195 22.0278 29.9031 21.7628 29.6293C21.4978 29.3555 21.2919 29.0303 21.1577 28.6737C21.0235 28.3171 20.964 27.9367 20.9829 27.5562L20.9524 26.6667C20.9371 26.8076 20.9524 26.5381 20.9524 26.6667V25.7143L21.9048 24.7619C22.7102 24.3726 23.4758 23.9056 24.1905 23.3676L24.3191 23.2791C24.881 22.931 25.3578 22.4614 25.7143 21.9048L25.7486 21.5419C26.18 19.4608 26.4865 17.3558 26.6667 15.2381C26.6667 10.7524 24.4857 8.57144 20 8.57144C15.4524 8.57144 13.3333 10.6895 13.3333 15.2381C13.5103 17.3552 13.8166 19.4594 14.2505 21.5391L14.2838 21.8743C14.6138 22.4514 15.0897 22.9316 15.6638 23.2667L15.7591 23.3257C16.5007 23.8623 17.2816 24.3424 18.0952 24.7619L19.0476 25.7143V26.6667C19.0476 26.5276 19.061 26.7981 19.0476 26.6667L19.0162 27.5562C19.0377 27.9306 18.9827 28.3055 18.8545 28.6579C18.7264 29.0104 18.5278 29.3331 18.2709 29.6063C18.014 29.8795 17.7041 30.0976 17.3602 30.2471C17.0163 30.3967 16.6455 30.4746 16.2705 30.4762C11.5505 30.6667 10.1819 32.4543 10.1752 32.4543C9.93525 32.8352 9.67239 33.2057 9.40667 33.5819C9.25715 33.7952 9.06858 34.0676 8.9181 34.2876C12.0837 36.7564 15.9832 38.0972 19.9976 38.0972C24.0121 38.0972 27.9116 36.7564 31.0771 34.2876L31.079 34.2857ZM20 1.90477C16.3898 1.90214 12.8615 2.98025 9.86934 5.00029C6.87719 7.02032 4.55823 9.88979 3.21104 13.2392C1.86386 16.5886 1.55014 20.2646 2.31028 23.7939C3.07042 27.3231 4.86962 30.5441 7.4762 33.0419C7.84001 32.5038 8.22858 31.9667 8.57144 31.4286C8.57144 31.4286 10.1619 28.8162 16.1905 28.5714C16.8048 28.5714 17.1114 28.1695 17.1114 27.5562C17.1114 27.06 17.1114 26.6667 17.1114 26.6667C17.1114 26.5429 17.0914 26.4314 17.0857 26.3114C16.2408 25.906 15.4316 25.43 14.6667 24.8886C14.6667 24.8886 12.381 23.4829 12.381 21.9048C11.9331 19.7031 11.6151 17.4771 11.4286 15.2381C11.4286 10.8152 13.32 6.66667 20 6.66667C26.5905 6.66667 28.5714 10.8152 28.5714 15.2381C28.3815 17.4767 28.0635 19.7025 27.6191 21.9048C27.6191 23.4391 25.3333 24.8886 25.3333 24.8886C24.5812 25.4648 23.7692 25.9584 22.9114 26.361C22.9114 26.4648 22.8895 26.56 22.8895 26.6667C22.8895 26.6667 22.8895 27.06 22.8895 27.5562C22.8895 28.1695 23.1943 28.5714 23.8086 28.5714C29.9267 28.8457 31.4276 31.4286 31.4276 31.4286C31.7705 31.9667 32.1581 32.5038 32.5219 33.0419C35.1288 30.5444 36.9284 27.3236 37.6889 23.7944C38.4494 20.2651 38.1359 16.589 36.7889 13.2395C35.4419 9.88996 33.123 7.02036 30.1308 5.00026C27.1386 2.98016 23.6102 1.90205 20 1.90477Z" fill="#99B4BF"/>
</svg>
