<svg width="45" height="45" viewBox="0 0 45 45" fill="none" xmlns="http://www.w3.org/2000/svg">
<path d="M18.2 28.95L11.5882 35.6445C10.6659 36.5782 10.2048 37.0452 9.80844 37.0781C9.46457 37.1067 9.1279 36.9684 8.90331 36.7063C8.64445 36.4045 8.64445 35.7483 8.64445 34.4357V31.0819C8.64445 29.9046 7.6802 29.0526 6.51518 28.8818C3.69554 28.4688 1.48113 26.2545 1.06811 23.4348C1 22.97 1 22.4151 1 21.3055V11.32C1 7.70766 1 5.90148 1.70301 4.52176C2.32139 3.30811 3.30811 2.32139 4.52176 1.70301C5.90148 1 7.70766 1 11.32 1H27.23C30.8424 1 32.6484 1 34.0283 1.70301C35.242 2.32139 36.2286 3.30811 36.847 4.52176C37.55 5.90148 37.55 7.70766 37.55 11.32V20.35M37.55 44L32.8707 40.7468C32.2131 40.2895 31.8841 40.0608 31.5261 39.8987C31.2084 39.7548 30.8745 39.6501 30.5315 39.5869C30.145 39.5157 29.7444 39.5157 28.9433 39.5157H25.08C22.6718 39.5157 21.4676 39.5157 20.5478 39.047C19.7388 38.6349 19.0809 37.977 18.6687 37.1679C18.2 36.248 18.2 35.044 18.2 32.6357V27.23C18.2 24.8218 18.2 23.6176 18.6687 22.6978C19.0809 21.8888 19.7388 21.2309 20.5478 20.8187C21.4676 20.35 22.6718 20.35 25.08 20.35H37.12C39.5282 20.35 40.7324 20.35 41.6522 20.8187C42.4612 21.2309 43.1191 21.8888 43.5313 22.6978C44 23.6176 44 24.8218 44 27.23V33.0657C44 35.0693 44 36.071 43.6728 36.8614C43.2363 37.9149 42.3991 38.7521 41.3456 39.1883C40.5553 39.5157 39.5536 39.5157 37.55 39.5157V44Z" fill="#253C59"/>
<path d="M18.9115 29.6527L19.6142 28.9412L18.1912 27.5358L17.4885 28.2473L18.9115 29.6527ZM11.5882 35.6445L12.2997 36.3472L12.2997 36.3472L11.5882 35.6445ZM9.80844 37.0781L9.72574 36.0815L9.72557 36.0815L9.80844 37.0781ZM8.90331 36.7063L9.66265 36.0556L9.66242 36.0554L8.90331 36.7063ZM6.51518 28.8818L6.66016 27.8924L6.66011 27.8924L6.51518 28.8818ZM1.06811 23.4348L2.05755 23.2899L2.05755 23.2898L1.06811 23.4348ZM1.70301 4.52176L2.59401 4.97576L2.59402 4.97575L1.70301 4.52176ZM4.52176 1.70301L4.97575 2.59402L4.97576 2.59401L4.52176 1.70301ZM34.0283 1.70301L34.4823 0.811996L34.4823 0.811982L34.0283 1.70301ZM36.847 4.52176L35.9559 4.97573L35.956 4.97578L36.847 4.52176ZM36.55 20.35C36.55 20.9023 36.9977 21.35 37.55 21.35C38.1023 21.35 38.55 20.9023 38.55 20.35H36.55ZM37.55 44L36.9792 44.8211C37.2849 45.0336 37.6833 45.0587 38.0132 44.8862C38.3432 44.7138 38.55 44.3723 38.55 44H37.55ZM32.8707 40.7468L32.2999 41.5679L32.2999 41.5679L32.8707 40.7468ZM31.5261 39.8987L31.9387 38.9877L31.9385 38.9876L31.5261 39.8987ZM30.5315 39.5869L30.7128 38.6035L30.7126 38.6034L30.5315 39.5869ZM20.5478 39.047L21.0018 38.1561L21.0017 38.156L20.5478 39.047ZM18.6687 37.1679L19.5597 36.714L19.5597 36.714L18.6687 37.1679ZM18.6687 22.6978L19.5597 23.1518L19.5597 23.1517L18.6687 22.6978ZM20.5478 20.8187L21.0017 21.7097L21.0018 21.7097L20.5478 20.8187ZM41.6522 20.8187L41.1982 21.7097L41.1983 21.7097L41.6522 20.8187ZM43.5313 22.6978L42.6403 23.1517L42.6403 23.1518L43.5313 22.6978ZM43.6728 36.8614L44.5966 37.2441L44.5967 37.2439L43.6728 36.8614ZM41.3456 39.1883L40.963 38.2644L40.9629 38.2645L41.3456 39.1883ZM37.55 39.5157V38.5157C36.9977 38.5157 36.55 38.9635 36.55 39.5157H37.55ZM17.4885 28.2473L10.8767 34.9418L12.2997 36.3472L18.9115 29.6527L17.4885 28.2473ZM10.8767 34.9417C10.4017 35.4227 10.0925 35.7344 9.85429 35.9365C9.5901 36.1605 9.58558 36.0931 9.72574 36.0815L9.89115 38.0747C10.4277 38.0301 10.8519 37.7128 11.1479 37.4617C11.4699 37.1886 11.8525 36.8 12.2997 36.3472L10.8767 34.9417ZM9.72557 36.0815C9.70171 36.0835 9.67833 36.0739 9.66265 36.0556L8.14398 37.357C8.57748 37.8629 9.22743 38.1298 9.89131 38.0746L9.72557 36.0815ZM9.66242 36.0554C9.754 36.1622 9.70344 36.207 9.67292 35.862C9.6454 35.5508 9.64445 35.1118 9.64445 34.4357H7.64445C7.64445 35.0722 7.64351 35.6176 7.6807 36.0382C7.7149 36.4248 7.79376 36.9486 8.14421 37.3573L9.66242 36.0554ZM9.64445 34.4357V31.0819H7.64445V34.4357H9.64445ZM9.64445 31.0819C9.64445 29.2748 8.17142 28.1139 6.66016 27.8924L6.3702 29.8713C7.18898 29.9913 7.64445 30.5344 7.64445 31.0819H9.64445ZM6.66011 27.8924C4.27761 27.5434 2.40653 25.6724 2.05755 23.2899L0.0786699 23.5797C0.55572 26.8367 3.11348 29.3942 6.37025 29.8713L6.66011 27.8924ZM2.05755 23.2898C2.00266 22.9153 2 22.4505 2 21.3055H0C0 22.3797 -0.00266363 23.0247 0.0786781 23.5798L2.05755 23.2898ZM2 21.3055V11.32H0V21.3055H2ZM2 11.32C2 9.49733 2.00078 8.19046 2.08455 7.16508C2.16738 6.15137 2.32631 5.50115 2.59401 4.97576L0.812002 4.06777C0.376697 4.9221 0.184126 5.86483 0.0911971 7.00222C-0.000777641 8.12793 0 9.53033 0 11.32H2ZM2.59402 4.97575C3.11652 3.95026 3.95026 3.11652 4.97575 2.59402L4.06778 0.811999C2.66596 1.52626 1.52626 2.66596 0.811999 4.06778L2.59402 4.97575ZM4.97576 2.59401C5.50115 2.32631 6.15137 2.16738 7.16508 2.08455C8.19046 2.00078 9.49733 2 11.32 2V0C9.53033 0 8.12793 -0.000777641 7.00222 0.0911971C5.86483 0.184126 4.9221 0.376697 4.06777 0.812002L4.97576 2.59401ZM11.32 2H27.23V0H11.32V2ZM27.23 2C29.0527 2 30.3596 2.00078 31.3849 2.08455C32.3986 2.16738 33.0489 2.32631 33.5743 2.59403L34.4823 0.811982C33.6279 0.3767 32.6852 0.184127 31.5478 0.0911972C30.4221 -0.000777667 29.0197 0 27.23 0V2ZM33.5743 2.59402C34.5998 3.11651 35.4335 3.95023 35.9559 4.97573L37.738 4.0678C37.0238 2.66599 35.8842 1.52627 34.4823 0.811996L33.5743 2.59402ZM35.956 4.97578C36.2237 5.50116 36.3826 6.15138 36.4654 7.16509C36.5492 8.19047 36.55 9.49733 36.55 11.32H38.55C38.55 9.53033 38.5508 8.12793 38.4588 7.00221C38.3659 5.86482 38.1733 4.92208 37.7379 4.06775L35.956 4.97578ZM36.55 11.32V20.35H38.55V11.32H36.55ZM38.1208 43.1789L33.4416 39.9258L32.2999 41.5679L36.9792 44.8211L38.1208 43.1789ZM33.4416 39.9258C32.8133 39.4889 32.3991 39.1962 31.9387 38.9877L31.1136 40.8096C31.3691 40.9253 31.6128 41.0902 32.2999 41.5679L33.4416 39.9258ZM31.9385 38.9876C31.5471 38.8105 31.1356 38.6814 30.7128 38.6035L30.3503 40.5703C30.6134 40.6188 30.8697 40.6992 31.1138 40.8097L31.9385 38.9876ZM30.7126 38.6034C30.2156 38.5119 29.7088 38.5157 28.9433 38.5157V40.5157C29.78 40.5157 30.0744 40.5195 30.3505 40.5704L30.7126 38.6034ZM28.9433 38.5157H25.08V40.5157H28.9433V38.5157ZM25.08 38.5157C23.8594 38.5157 23.0041 38.515 22.3372 38.4605C21.682 38.4069 21.2972 38.3066 21.0018 38.1561L20.0938 39.938C20.7181 40.2562 21.3954 40.3902 22.1743 40.4538C22.9415 40.5165 23.8924 40.5157 25.08 40.5157V38.5157ZM21.0017 38.156C20.3809 37.8397 19.876 37.3349 19.5597 36.714L17.7777 37.6219C18.2857 38.6191 19.0966 39.43 20.0939 39.9381L21.0017 38.156ZM19.5597 36.714C19.4092 36.4184 19.3088 36.0337 19.2553 35.3785C19.2008 34.7116 19.2 33.8564 19.2 32.6357H17.2C17.2 33.8234 17.1992 34.7742 17.2619 35.5414C17.3256 36.3203 17.4596 36.9975 17.7777 37.6219L19.5597 36.714ZM19.2 32.6357V27.23H17.2V32.6357H19.2ZM19.2 27.23C19.2 26.0094 19.2008 25.1541 19.2553 24.4872C19.3088 23.832 19.4092 23.4472 19.5597 23.1518L17.7777 22.2438C17.4595 22.8681 17.3256 23.5454 17.2619 24.3243C17.1992 25.0915 17.2 26.0424 17.2 27.23H19.2ZM19.5597 23.1517C19.876 22.5309 20.3809 22.026 21.0017 21.7097L20.0939 19.9277C19.0966 20.4357 18.2857 21.2466 17.7777 22.2439L19.5597 23.1517ZM21.0018 21.7097C21.2972 21.5592 21.682 21.4588 22.3372 21.4053C23.0041 21.3508 23.8594 21.35 25.08 21.35V19.35C23.8924 19.35 22.9415 19.3492 22.1743 19.4119C21.3954 19.4756 20.7181 19.6095 20.0938 19.9277L21.0018 21.7097ZM25.08 21.35H37.12V19.35H25.08V21.35ZM37.12 21.35C38.3406 21.35 39.1959 21.3508 39.8628 21.4053C40.5181 21.4588 40.9028 21.5592 41.1982 21.7097L42.1062 19.9277C41.4819 19.6095 40.8046 19.4756 40.0257 19.4119C39.2585 19.3492 38.3076 19.35 37.12 19.35V21.35ZM41.1983 21.7097C41.8191 22.026 42.324 22.5309 42.6403 23.1517L44.4223 22.2439C43.9143 21.2466 43.1034 20.4357 42.1061 19.9277L41.1983 21.7097ZM42.6403 23.1518C42.7908 23.4472 42.8912 23.832 42.9447 24.4872C42.9992 25.1541 43 26.0094 43 27.23H45C45 26.0424 45.0008 25.0915 44.9381 24.3243C44.8745 23.5454 44.7405 22.8681 44.4223 22.2438L42.6403 23.1518ZM43 27.23V33.0657H45V27.23H43ZM43 33.0657C43 34.0812 42.9995 34.7927 42.9614 35.3505C42.924 35.8992 42.8536 36.2257 42.7488 36.4788L44.5967 37.2439C44.8192 36.7066 44.9124 36.1371 44.9568 35.4866C45.0005 34.845 45 34.0539 45 33.0657H43ZM42.7489 36.4786C42.414 37.2871 41.7714 37.9296 40.963 38.2644L41.7282 40.1122C43.0268 39.5745 44.0587 38.5426 44.5966 37.2441L42.7489 36.4786ZM40.9629 38.2645C40.7098 38.3693 40.3834 38.4397 39.8347 38.4771C39.277 38.5152 38.5655 38.5157 37.55 38.5157V40.5157C38.5381 40.5157 39.3293 40.5163 39.9709 40.4725C40.6215 40.4281 41.191 40.3348 41.7284 40.1121L40.9629 38.2645ZM36.55 39.5157V44H38.55V39.5157H36.55Z" fill="white"/>
<path d="M8.41406 9.30347H30.6554M8.41406 15.5311H30.6554M8.41406 22.3517H16.7175M25.9106 28.2828H40.4416M25.9106 33.9173H40.4416" stroke="white"/>
</svg>
