<svg width="26" height="28" viewBox="0 0 26 28" fill="none" xmlns="http://www.w3.org/2000/svg">
<path d="M3.35484 6.57143L4.91012 25.5126C4.9541 26.0482 4.97609 26.316 5.0976 26.5171C5.19577 26.6796 5.33818 26.8108 5.50818 26.8954C5.71855 27 5.98726 27 6.52469 27H19.4753C20.0127 27 20.2814 27 20.4918 26.8954C20.6618 26.8108 20.8042 26.6796 20.9024 26.5171C21.0239 26.316 21.0459 26.0482 21.0899 25.5126L22.6452 6.57143M26 4.71429H17.6129M0 4.71429H9.22581M9.22581 4.71429V2.62C9.22581 2.04107 9.22581 1.7516 9.34204 1.53207C9.43584 1.35491 9.58072 1.21003 9.75788 1.11623C9.9774 1 10.2669 1 10.8458 1H15.9929C16.5718 1 16.8613 1 17.0808 1.11623C17.258 1.21003 17.4029 1.35491 17.4967 1.53207C17.6129 1.7516 17.6129 2.04107 17.6129 2.62V4.71429M9.22581 4.71429H17.6129M17.0258 11.4L9.22581 20.0667M9.22581 11.4L17.0258 20.0667" stroke="#C99432" stroke-width="2"/>
</svg>
