<svg width="22" height="23" viewBox="0 0 22 23" fill="none" xmlns="http://www.w3.org/2000/svg">
<path d="M18.9229 22.0271H3.0771C2.30933 22.0703 1.55552 21.8089 0.979382 21.2996C0.403243 20.7903 0.0513039 20.0742 0 19.307V5.76774C0.050994 5.00026 0.4028 4.2839 0.978973 3.77434C1.55515 3.26477 2.30913 3.00316 3.0771 3.04636H3.64574C3.80896 3.04636 3.9655 3.1112 4.08091 3.22661C4.19632 3.34203 4.26116 3.49856 4.26116 3.66178C4.26116 3.825 4.19632 3.98153 4.08091 4.09695C3.9655 4.21236 3.80896 4.2772 3.64574 4.2772H3.0771C2.6357 4.23555 2.19551 4.36813 1.85054 4.64663C1.50557 4.92514 1.28317 5.32748 1.23084 5.76774V19.307C1.28347 19.747 1.50599 20.149 1.85093 20.4273C2.19586 20.7055 2.63589 20.8379 3.0771 20.7963H18.9229C19.3641 20.8379 19.8041 20.7055 20.1491 20.4273C20.494 20.149 20.7165 19.747 20.7692 19.307V5.76774C20.7168 5.32748 20.4944 4.92514 20.1495 4.64663C19.8045 4.36813 19.3643 4.23555 18.9229 4.2772H18.3543C18.191 4.2772 18.0345 4.21236 17.9191 4.09695C17.8037 3.98153 17.7388 3.825 17.7388 3.66178C17.7388 3.49856 17.8037 3.34203 17.9191 3.22661C18.0345 3.1112 18.191 3.04636 18.3543 3.04636H18.9229C19.6909 3.00316 20.4449 3.26477 21.021 3.77434C21.5972 4.2839 21.949 5.00026 22 5.76774V19.307C21.9487 20.0742 21.5968 20.7903 21.0206 21.2996C20.4445 21.8089 19.6907 22.0703 18.9229 22.0271Z" fill="#99B4BF"/>
<path d="M15.1294 9.28052L11.4369 12.973C11.3233 13.089 11.1684 13.1553 11.0061 13.1577C10.9237 13.1576 10.8422 13.1412 10.7661 13.1096C10.6901 13.0779 10.6211 13.0315 10.563 12.973L6.8705 9.28052C6.75462 9.16464 6.68951 9.00746 6.68951 8.84357C6.68951 8.67969 6.75462 8.52251 6.8705 8.40663C6.98639 8.29074 7.14356 8.22564 7.30745 8.22564C7.47134 8.22564 7.62851 8.29074 7.7444 8.40663L10.3784 11.0394V0.615419C10.3809 0.452991 10.4466 0.297928 10.5615 0.18306C10.6763 0.0681919 10.8314 0.0025384 10.9938 0C11.157 0 11.3136 0.0648384 11.429 0.180252C11.5444 0.295665 11.6092 0.4522 11.6092 0.615419V11.0652L14.2555 8.40663C14.3129 8.34924 14.381 8.30373 14.456 8.27267C14.531 8.24162 14.6113 8.22564 14.6925 8.22564C14.7736 8.22564 14.854 8.24162 14.929 8.27267C15.0039 8.30373 15.072 8.34924 15.1294 8.40663C15.1868 8.46401 15.2323 8.53213 15.2634 8.6071C15.2944 8.68207 15.3104 8.76243 15.3104 8.84357C15.3104 8.92472 15.2944 9.00508 15.2634 9.08005C15.2323 9.15502 15.1868 9.22314 15.1294 9.28052Z" fill="#99B4BF"/>
</svg>
