<svg width="34" height="39" viewBox="0 0 34 39" fill="none" xmlns="http://www.w3.org/2000/svg">
<path d="M31.3158 32.7369C31.3158 33.229 30.9149 33.6316 30.421 33.6316H20.1634C19.6495 34.6176 18.9985 35.5208 18.2354 36.3158H30.421C32.3966 36.3158 34 34.7125 34 32.7369V14.5344C34 13.5859 33.6224 12.6751 32.9514 12.0041L22.5205 1.575C22.4937 1.54825 22.4634 1.52504 22.4334 1.50199C22.411 1.48493 22.389 1.46799 22.3684 1.44974C22.2414 1.33521 22.1161 1.22247 21.9765 1.12763C21.9312 1.0971 21.8819 1.07302 21.8325 1.04902L21.8306 1.04813C21.8026 1.03445 21.7746 1.02078 21.7475 1.00595C21.7213 0.991185 21.6952 0.976136 21.669 0.961027L21.658 0.954642L21.6575 0.954346C21.5607 0.898326 21.4635 0.842096 21.3609 0.798367C21.0084 0.65163 20.629 0.578262 20.2443 0.55142C20.2091 0.549171 20.1743 0.544429 20.1393 0.539663L20.1391 0.539627C20.0906 0.533006 20.0419 0.526367 19.992 0.526367H8.94736C6.97178 0.526367 5.36841 2.12974 5.36841 4.10532V17.5232C6.21692 17.1692 7.11635 16.9129 8.05262 16.7684V4.10532C8.05262 3.61321 8.45346 3.21058 8.94736 3.21058H19.6842V11.2632C19.6842 13.2388 21.2876 14.8422 23.2631 14.8422H31.3158V32.7369ZM22.3684 5.21658L29.308 12.1579H23.2631C22.7693 12.1579 22.3684 11.7553 22.3684 11.2632V5.21658Z" fill="#99B4BF"/>
<path d="M31.3158 32.7369C31.3158 33.229 30.9149 33.6316 30.421 33.6316H20.1634C19.6495 34.6176 18.9985 35.5208 18.2354 36.3158H30.421C32.3966 36.3158 34 34.7125 34 32.7369V14.5344C34 13.5859 33.6224 12.6751 32.9514 12.0041L22.5205 1.575C22.4937 1.54825 22.4634 1.52504 22.4334 1.50199C22.411 1.48493 22.389 1.46799 22.3684 1.44974C22.2414 1.33521 22.1161 1.22247 21.9765 1.12763C21.9312 1.0971 21.8819 1.07302 21.8325 1.04902L21.8306 1.04813C21.8026 1.03445 21.7746 1.02078 21.7475 1.00595C21.7213 0.991185 21.6952 0.976136 21.669 0.961027L21.658 0.954642L21.6575 0.954346C21.5607 0.898326 21.4635 0.842096 21.3609 0.798367C21.0084 0.65163 20.629 0.578262 20.2443 0.55142C20.2091 0.549171 20.1743 0.544429 20.1393 0.539663L20.1391 0.539627C20.0906 0.533006 20.0419 0.526367 19.992 0.526367H8.94736C6.97178 0.526367 5.36841 2.12974 5.36841 4.10532V17.5232C6.21692 17.1692 7.11635 16.9129 8.05262 16.7684V4.10532C8.05262 3.61321 8.45346 3.21058 8.94736 3.21058H19.6842V11.2632C19.6842 13.2388 21.2876 14.8422 23.2631 14.8422H31.3158V32.7369ZM22.3684 5.21658L29.308 12.1579H23.2631C22.7693 12.1579 22.3684 11.7553 22.3684 11.2632V5.21658Z" stroke="white"/>
<path d="M19.6842 28.2632C19.6842 33.6989 15.2778 38.1053 9.84211 38.1053C4.40645 38.1053 0 33.6989 0 28.2632C0 22.8275 4.40645 18.4211 9.84211 18.4211C15.2778 18.4211 19.6842 22.8275 19.6842 28.2632ZM9.84211 22C9.34796 22 8.94737 22.4007 8.94737 22.8948V30.0527C8.94737 30.5467 9.34796 30.9474 9.84211 30.9474C10.3363 30.9474 10.7368 30.5467 10.7368 30.0527V22.8948C10.7368 22.4007 10.3363 22 9.84211 22ZM9.84211 34.75C10.4598 34.75 10.9605 34.2493 10.9605 33.6316C10.9605 33.0139 10.4598 32.5132 9.84211 32.5132C9.22442 32.5132 8.72368 33.0139 8.72368 33.6316C8.72368 34.2493 9.22442 34.75 9.84211 34.75Z" fill="#99B4BF"/>
</svg>
