<svg width="42" height="42" viewBox="0 0 42 42" fill="none" xmlns="http://www.w3.org/2000/svg">
<path d="M35.1287 6.84305C31.5168 3.2293 26.5115 0.998282 21.0003 1C15.497 0.999376 10.4934 3.22031 6.88477 6.83063C3.26039 10.4528 0.998829 15.4637 1 20.9985C0.999454 26.5182 3.24008 31.5257 6.85828 35.1416C10.4737 38.7592 15.4812 40.9999 21.0009 40.9993C22.6584 40.9993 24.2618 40.7852 25.7931 40.4066L26.1352 40.3221L21 40.5L26.1487 40.3086L40.3093 26.148L40.5 25L40.3239 26.1295L40.4084 25.7886C40.7853 24.2595 41.0006 22.6561 41 20.9985C41.0012 15.4716 38.7498 10.4629 35.1287 6.84305ZM38.2731 24.7491C38.1937 24.7655 38.0895 24.7823 37.9627 24.793C37.7328 24.8151 37.437 24.8223 37.099 24.8156L37.0793 24.8151H37.0905C36.0562 24.8072 34.5654 24.6652 32.8841 24.9356L32.8864 24.9351C31.1928 25.2016 29.3003 25.9649 27.6535 27.6169L27.6388 27.6309L27.636 27.6344L27.6248 27.6456L27.6225 27.6479C26.3695 28.8998 25.6117 30.297 25.2168 31.647C24.6252 33.6645 24.7835 35.5052 24.8095 36.7807L24.8101 36.7863C24.8304 37.4173 24.814 37.9424 24.7622 38.2089C24.7571 38.2359 24.7527 38.2506 24.7475 38.2737C23.5339 38.5379 22.2855 38.6917 21.0003 38.6917C16.1111 38.6917 11.6952 36.7136 8.48992 33.5101C5.28586 30.3048 3.30836 25.8884 3.30719 20.9985C3.30836 16.098 5.30219 11.6788 8.51641 8.46227C11.7109 5.26945 16.1223 3.30766 21.0003 3.30711C25.8833 3.30766 30.297 5.27727 33.4972 8.47523C36.7058 11.686 38.6918 16.1038 38.693 20.9986C38.6923 22.2843 38.5385 23.535 38.2731 24.7491Z" fill="#99B4BF" stroke="#99B4BF" stroke-width="0.8"/>
<path d="M13.4247 8.30278C13.2044 8.22599 13.0588 8.11438 12.9881 7.96794C12.9189 7.82205 12.923 7.63815 13.0003 7.41624L13.1237 7.06213C13.2005 6.84179 13.3111 6.69676 13.4554 6.62703C13.6018 6.55628 13.7852 6.5593 14.0056 6.63609L14.0811 6.66241C14.3014 6.7392 14.4462 6.85054 14.5154 6.99643C14.5861 7.14287 14.5834 7.32547 14.5071 7.54423L14.3854 7.89362C14.3075 8.11711 14.1951 8.26501 14.0481 8.33734C13.9032 8.40863 13.7206 8.40589 13.5003 8.32911L13.4247 8.30278ZM13.3261 7.52977C13.2806 7.6604 13.2722 7.75543 13.3009 7.81485C13.3312 7.87483 13.4108 7.9273 13.5399 7.97227L13.6154 7.9986C13.7445 8.04357 13.8387 8.05171 13.8982 8.023C13.9592 7.99483 14.013 7.91387 14.0596 7.78009L14.1814 7.4307C14.2258 7.30322 14.2328 7.20949 14.2026 7.14952C14.1739 7.09009 14.095 7.03789 13.9659 6.99292L13.8904 6.96659C13.7613 6.92162 13.6663 6.91321 13.6053 6.94137C13.5464 6.96851 13.4945 7.04661 13.4495 7.17566L13.3261 7.52977ZM14.9076 10.4822C14.6873 10.4054 14.5415 10.2946 14.4702 10.1497C14.401 10.0038 14.4048 9.82068 14.4816 9.60034L14.605 9.24623C14.6829 9.02275 14.7937 8.87693 14.9375 8.80878C15.0834 8.7396 15.2665 8.74341 15.4868 8.82019L15.5624 8.84652C15.7827 8.9233 15.9274 9.03464 15.9966 9.18053C16.0679 9.3254 16.0652 9.508 15.9884 9.72833L15.8666 10.0777C15.7893 10.2996 15.6774 10.446 15.531 10.5167C15.3861 10.588 15.2035 10.5853 14.9832 10.5085L14.9076 10.4822ZM14.8074 9.71388C14.7624 9.84293 14.754 9.93796 14.7822 9.99896C14.8124 10.0589 14.8921 10.1114 15.0212 10.1564L15.0967 10.1827C15.2258 10.2277 15.3203 10.235 15.3802 10.2047C15.4418 10.175 15.4953 10.0948 15.5408 9.96419L15.6626 9.6148C15.7076 9.48575 15.7149 9.39123 15.6846 9.33126C15.6565 9.27026 15.5779 9.21728 15.4488 9.1723L15.3733 9.14597C15.2442 9.101 15.1492 9.09259 15.0882 9.12076C15.0293 9.14789 14.9768 9.22756 14.9308 9.35976L14.8074 9.71388ZM12.8228 9.83241C12.7756 9.81595 12.7407 9.78438 12.7182 9.73769C12.6966 9.69312 12.6941 9.64723 12.7106 9.60001C12.7177 9.57955 12.7277 9.56098 12.7406 9.54428C12.7534 9.52759 12.7671 9.51381 12.7814 9.50294L15.9618 7.38135C16.0144 7.34675 16.0691 7.33932 16.1257 7.35906C16.1745 7.37607 16.2094 7.40764 16.2304 7.45378C16.2535 7.4989 16.2565 7.54585 16.2395 7.59464C16.2335 7.61195 16.2238 7.62974 16.2104 7.64801C16.1975 7.6647 16.1838 7.67848 16.1695 7.68936L12.9892 9.81094C12.9349 9.845 12.8795 9.85215 12.8228 9.83241Z" fill="#99B4BF" fill-opacity="0.5"/>
<path d="M16.3545 13.3669C15.9869 13.4324 15.6964 13.3907 15.483 13.2418C15.2722 13.0925 15.1339 12.8327 15.0679 12.4626L14.9627 11.8719C14.8972 11.5043 14.9378 11.2154 15.0845 11.0051C15.2334 10.7916 15.4916 10.6522 15.8592 10.5867L15.9852 10.5643C16.3527 10.4988 16.6419 10.5407 16.8527 10.6901C17.0661 10.8389 17.2053 11.0958 17.2703 11.4608L17.3742 12.0436C17.4406 12.4164 17.3996 12.7108 17.2512 12.9268C17.1049 13.1398 16.848 13.279 16.4805 13.3445L16.3545 13.3669ZM15.6114 12.3657C15.6502 12.5837 15.7129 12.7228 15.7995 12.7832C15.8887 12.8432 16.041 12.854 16.2563 12.8156L16.3823 12.7932C16.5975 12.7548 16.7354 12.6923 16.7958 12.6057C16.8588 12.5187 16.8705 12.3635 16.8307 12.1404L16.7269 11.5576C16.689 11.3449 16.6255 11.2086 16.5362 11.1487C16.4496 11.0883 16.2987 11.0772 16.0834 11.1156L15.9574 11.138C15.7421 11.1764 15.603 11.2391 15.5399 11.3262C15.479 11.4101 15.4678 11.5598 15.5061 11.775L15.6114 12.3657ZM20.1305 15.2458C19.763 15.3113 19.4727 15.2709 19.2598 15.1246C19.049 14.9753 18.9109 14.7168 18.8454 14.3493L18.7401 13.7586C18.6737 13.3858 18.7141 13.0955 18.8613 12.8878C19.0106 12.677 19.2691 12.5389 19.6366 12.4734L19.7627 12.451C20.1302 12.3855 20.4194 12.4274 20.6302 12.5768C20.8431 12.723 20.9823 12.9799 21.0478 13.3475L21.1516 13.9303C21.2176 14.3005 21.1761 14.5923 21.0272 14.8057C20.881 15.0186 20.6241 15.1578 20.2566 15.2233L20.1305 15.2458ZM19.3888 14.2525C19.4272 14.4677 19.4899 14.6069 19.577 14.6699C19.6662 14.7299 19.8184 14.7407 20.0337 14.7023L20.1597 14.6799C20.375 14.6415 20.5126 14.5777 20.5726 14.4885C20.6351 14.3988 20.647 14.245 20.6082 14.0271L20.5044 13.4443C20.466 13.229 20.4022 13.0914 20.313 13.0314C20.2259 12.9684 20.0747 12.9561 19.8595 12.9944L19.7335 13.0169C19.5182 13.0552 19.379 13.1179 19.316 13.205C19.2551 13.289 19.2443 13.4412 19.2836 13.6618L19.3888 14.2525ZM16.713 15.9724C16.6342 15.9865 16.5608 15.9698 16.4928 15.9223C16.4278 15.877 16.3884 15.8149 16.3743 15.7362C16.3682 15.702 16.3676 15.6683 16.3725 15.6349C16.3774 15.6015 16.3856 15.5716 16.3972 15.5452L19.1721 10.094C19.2185 10.0045 19.2889 9.95132 19.3834 9.93448C19.4648 9.91998 19.5382 9.9367 19.6036 9.98464C19.6712 10.0295 19.7122 10.0926 19.7267 10.174C19.7319 10.2029 19.7322 10.2353 19.7278 10.2713C19.7229 10.3047 19.7147 10.3346 19.7032 10.361L16.9282 15.8122C16.8793 15.9022 16.8075 15.9556 16.713 15.9724Z" fill="#99B4BF" fill-opacity="0.6"/>
<path d="M9.6899 15.8458C9.175 15.6257 8.84493 15.3344 8.69968 14.9721C8.5581 14.6114 8.59819 14.1718 8.81995 13.6532L9.17381 12.8257C9.394 12.3108 9.68261 11.9818 10.0396 11.8386C10.4019 11.6934 10.8405 11.7308 11.3554 11.951L11.532 12.0265C12.0469 12.2467 12.3751 12.5371 12.5167 12.8979C12.6619 13.2601 12.6252 13.6969 12.4066 14.2081L12.0575 15.0246C11.8342 15.5468 11.5406 15.8824 11.1767 16.0314C10.8181 16.1782 10.3813 16.1415 9.86644 15.9213L9.6899 15.8458ZM9.58126 13.9788C9.45072 14.284 9.41493 14.5101 9.47387 14.6572C9.53649 14.8058 9.71859 14.9445 10.0202 15.0735L10.1967 15.149C10.4983 15.278 10.7226 15.313 10.8696 15.254C11.0203 15.1966 11.1625 15.0117 11.2962 14.699L11.6453 13.8826C11.7727 13.5847 11.8051 13.3614 11.7425 13.2128C11.6835 13.0658 11.5033 12.9278 11.2017 12.7988L11.0252 12.7234C10.7236 12.5944 10.4974 12.5586 10.3467 12.616C10.2013 12.6712 10.0641 12.8497 9.93513 13.1512L9.58126 13.9788ZM12.8811 21.3085C12.3662 21.0883 12.0353 20.7989 11.8885 20.4403C11.7469 20.0796 11.7862 19.6418 12.0064 19.1269L12.3603 18.2994C12.5836 17.7771 12.873 17.4463 13.2285 17.3068C13.5892 17.1652 14.027 17.2045 14.5419 17.4247L14.7184 17.5002C15.2333 17.7204 15.5616 18.0109 15.7031 18.3716C15.85 18.7302 15.8133 19.1669 15.5931 19.6818L15.2439 20.4983C15.0222 21.0169 14.7302 21.3488 14.3679 21.4941C14.0093 21.6409 13.5725 21.6042 13.0576 21.384L12.8811 21.3085ZM12.7677 19.4525C12.6388 19.7541 12.603 19.9802 12.6603 20.1309C12.7229 20.2795 12.9051 20.4183 13.2066 20.5472L13.3832 20.6227C13.6848 20.7517 13.9098 20.7848 14.0584 20.7222C14.2107 20.6612 14.3521 20.478 14.4826 20.1728L14.8318 19.3563C14.9607 19.0547 14.9939 18.8296 14.9313 18.681C14.8739 18.5303 14.6944 18.3905 14.3929 18.2615L14.2163 18.186C13.9147 18.0571 13.6886 18.0213 13.5379 18.0787C13.3925 18.1339 13.2537 18.316 13.1216 18.625L12.7677 19.4525ZM7.99653 19.409C7.8862 19.3618 7.80787 19.2805 7.76156 19.165C7.71735 19.0547 7.71884 18.9444 7.76602 18.8341C7.78647 18.7863 7.81348 18.7434 7.84707 18.7056C7.88065 18.6678 7.91556 18.637 7.95178 18.6133L15.9163 14.058C16.0481 13.9838 16.1802 13.975 16.3126 14.0317C16.4266 14.0804 16.5049 14.1618 16.5476 14.2757C16.5955 14.3875 16.595 14.5005 16.5463 14.6145C16.529 14.6549 16.5027 14.6959 16.4676 14.7374C16.434 14.7753 16.3991 14.806 16.3629 14.8297L8.39831 19.3851C8.26286 19.4576 8.12893 19.4656 7.99653 19.409Z" fill="#99B4BF" fill-opacity="0.75"/>
<path d="M17.8843 24.7184C17.1492 24.8493 16.5683 24.7659 16.1414 24.4682C15.7198 24.1695 15.4431 23.65 15.3112 22.9096L15.1007 21.7282C14.9698 20.9931 15.051 20.4153 15.3445 19.9946C15.6422 19.5678 16.1586 19.2889 16.8937 19.1579L17.1458 19.113C17.8809 18.9821 18.4592 19.0659 18.8808 19.3646C19.3076 19.6624 19.5861 20.1762 19.7161 20.906L19.9237 22.0716C20.0566 22.8172 19.9746 23.4061 19.6778 23.8382C19.3853 24.2641 18.8715 24.5425 18.1364 24.6735L17.8843 24.7184ZM16.3981 22.716C16.4757 23.1518 16.6012 23.4301 16.7744 23.5509C16.9528 23.6708 17.2573 23.6924 17.6879 23.6157L17.9399 23.5708C18.3705 23.4941 18.6462 23.3692 18.767 23.196C18.8931 23.0218 18.9164 22.7116 18.8369 22.2653L18.6292 21.0996C18.5534 20.6743 18.4263 20.4017 18.2478 20.2818C18.0746 20.161 17.7728 20.1389 17.3422 20.2157L17.0902 20.2606C16.6596 20.3373 16.3813 20.4627 16.2552 20.6368C16.1335 20.8048 16.1109 21.104 16.1876 21.5346L16.3981 22.716ZM25.4365 28.476C24.7014 28.607 24.1209 28.5262 23.695 28.2337C23.2734 27.935 22.9971 27.4182 22.8661 26.6831L22.6557 25.5017C22.5228 24.7561 22.6036 24.1756 22.898 23.7602C23.1967 23.3386 23.7136 23.0623 24.4487 22.9313L24.7007 22.8864C25.4358 22.7555 26.0141 22.8394 26.4357 23.138C26.8616 23.4305 27.1401 23.9443 27.271 24.6794L27.4787 25.8451C27.6106 26.5854 27.5276 27.169 27.2299 27.5959C26.9374 28.0218 26.4236 28.3002 25.6885 28.4311L25.4365 28.476ZM23.953 26.4894C24.0297 26.92 24.1552 27.1983 24.3293 27.3244C24.5078 27.4443 24.8123 27.4659 25.2428 27.3892L25.4949 27.3443C25.9254 27.2676 26.2006 27.14 26.3205 26.9615C26.4457 26.7821 26.4694 26.4745 26.3918 26.0387L26.1841 24.8731C26.1074 24.4425 25.9798 24.1673 25.8014 24.0474C25.6272 23.9213 25.3249 23.8966 24.8943 23.9733L24.6423 24.0182C24.2117 24.0949 23.9334 24.2204 23.8073 24.3945C23.6856 24.5625 23.664 24.867 23.7426 25.308L23.953 26.4894ZM18.6014 29.9294C18.4439 29.9574 18.2971 29.924 18.161 29.8291C18.0311 29.7384 17.9521 29.6144 17.924 29.4569C17.9119 29.3886 17.9107 29.3211 17.9205 29.2543C17.9302 29.1876 17.9467 29.1278 17.9698 29.0749L23.5196 18.1725C23.6123 17.9935 23.7532 17.8871 23.9422 17.8535C24.105 17.8245 24.2518 17.8579 24.3826 17.9538C24.5178 18.0435 24.5999 18.1697 24.6289 18.3325C24.6391 18.3902 24.6399 18.4551 24.631 18.5271C24.6213 18.5938 24.6048 18.6537 24.5817 18.7065L19.0319 29.6089C18.9339 29.7889 18.7904 29.8957 18.6014 29.9294Z" fill="#99B4BF"/>
</svg>
