<svg width="32" height="32" viewBox="0 0 32 32" fill="none" xmlns="http://www.w3.org/2000/svg">
<path d="M24.9064 1.08092L24.9056 1.08037C24.3586 0.680737 23.6175 0.661326 22.772 0.927686L1.26655 7.20988C1.26652 7.20989 1.26649 7.2099 1.26646 7.20991C0.931037 7.3078 0.739166 7.62372 0.760228 7.94515C0.75568 7.96405 0.75 7.99375 0.75 8.02839V29.5936C0.75 30.507 1.49284 31.25 2.40625 31.25H29.5938C30.5072 31.25 31.25 30.507 31.25 29.5936V8.96601C31.25 8.05256 30.5072 7.30958 29.5938 7.30958H25.625V2.78524C25.625 2.0406 25.4008 1.44499 24.9064 1.08092ZM23.1876 2.30418L23.1876 2.30423L23.1924 2.30272C23.4308 2.22782 23.6296 2.19169 23.783 2.18778C23.9415 2.18375 24.0216 2.21463 24.0545 2.23899L24.0551 2.23946C24.0835 2.26025 24.1221 2.31426 24.1507 2.42771C24.1779 2.53579 24.1875 2.66405 24.1875 2.78524V7.30958H6.053L23.1876 2.30418ZM29.8125 23.2491H21.1562C21.0362 23.2491 20.9375 23.1507 20.9375 23.0303V15.5293C20.9375 15.4089 21.0362 15.3105 21.1562 15.3105H29.8125V23.2491ZM29.5938 29.8124H2.40625C2.28621 29.8124 2.1875 29.714 2.1875 29.5936V8.7472H29.5938C29.7138 8.7472 29.8125 8.84559 29.8125 8.96601V13.8729H21.1562C20.2428 13.8729 19.5 14.6159 19.5 15.5293V23.0303C19.5 23.9437 20.2428 24.6867 21.1562 24.6867H29.8125V29.5936C29.8125 29.714 29.7138 29.8124 29.5938 29.8124Z" fill="#99B4BF" stroke="#99B4BF" stroke-width="0.5"/>
<path d="M24.7665 21.2528C25.885 21.2528 26.7962 20.3425 26.7962 19.224C26.7962 18.1056 25.885 17.1943 24.7665 17.1943C23.6481 17.1943 22.7378 18.1046 22.7378 19.224C22.7378 20.3434 23.6472 21.2528 24.7665 21.2528ZM24.7665 18.1328C25.3694 18.1328 25.8587 18.6221 25.8587 19.225C25.8587 19.8278 25.3694 20.3162 24.7665 20.3162C24.1647 20.3162 23.6753 19.8268 23.6753 19.225C23.6753 18.6231 24.1647 18.1328 24.7665 18.1328Z" fill="#99B4BF"/>
</svg>
