<svg width="47" height="33" viewBox="0 0 47 33" fill="none" xmlns="http://www.w3.org/2000/svg">
<path d="M21.8534 26.1489C21.8534 21.495 18.0806 17.7222 13.4267 17.7222C8.77276 17.7222 5 21.495 5 26.1489M4.5 27V27.5H5H21.8534H22.3534V27V26.1489C22.3534 21.2188 18.3568 17.2222 13.4267 17.2222C8.49661 17.2222 4.5 21.2188 4.5 26.1489V27ZM26 10.5H43V9.5H26V10.5ZM43 15H26V16H43V15ZM25.5 21.5H43V20.5H25.5V21.5ZM21.3534 26.5H5.5V26.1489C5.5 21.7711 9.0489 18.2222 13.4267 18.2222C17.8045 18.2222 21.3534 21.7711 21.3534 26.1489V26.5ZM18.5 10.25C18.5 7.35051 16.1495 5 13.25 5C10.3505 5 8 7.35051 8 10.25C8 13.1495 10.3505 15.5 13.25 15.5C16.1495 15.5 18.5 13.1495 18.5 10.25ZM13.25 6C15.5972 6 17.5 7.90279 17.5 10.25C17.5 12.5972 15.5972 14.5 13.25 14.5C10.9028 14.5 9 12.5972 9 10.25C9 7.90279 10.9028 6 13.25 6ZM5 0.5H42C44.4853 0.5 46.5 2.51472 46.5 5V28C46.5 30.4853 44.4853 32.5 42 32.5H5C2.51472 32.5 0.5 30.4853 0.5 28V5C0.5 2.51472 2.51472 0.5 5 0.5Z" fill="white" stroke="#939393"/>
</svg>
