<svg width="28" height="26" viewBox="0 0 28 26" fill="none" xmlns="http://www.w3.org/2000/svg">
<path d="M0 3.5H13.2194M13.2194 3.5V3.5C13.2194 4.88071 14.3387 6 15.7194 6V6C17.1001 6 18.2194 4.88071 18.2194 3.5V3.5M13.2194 3.5V3.5C13.2194 2.11929 14.3387 1 15.7194 1V1C17.1001 1 18.2194 2.11929 18.2194 3.5V3.5M0 13H6M6 13V13C6 14.3807 7.11929 15.5 8.5 15.5V15.5C9.88071 15.5 11 14.3807 11 13V13M6 13V13C6 11.6193 7.11929 10.5 8.5 10.5V10.5C9.88071 10.5 11 11.6193 11 13V13M0 22H18.2194M18.2194 22V22C18.2194 20.6193 19.3387 19.5 20.7194 19.5V19.5C22.1001 19.5 23.2194 20.6193 23.2194 22V22M18.2194 22V22C18.2194 23.3807 19.3387 24.5 20.7194 24.5V24.5C22.1001 24.5 23.2194 23.3807 23.2194 22V22M23.2194 22H28M11 13H28M18.2194 3.5H28" stroke="#C99432" stroke-width="2"/>
</svg>
