
<svg width="34" height="24" viewBox="0 0 34 24" fill="none" xmlns="http://www.w3.org/2000/svg">
<path d="M1.51847 6.33226L17.9355 1.02088C17.9773 1.00734 18.0225 1.00797 18.0639 1.02268L33.0316 6.3338C33.2014 6.39404 33.2112 6.63042 33.0471 6.70456L18.0787 13.4645C18.0285 13.4871 17.9711 13.4881 17.9202 13.4671L1.50389 6.70748C1.33172 6.63659 1.34133 6.38957 1.51847 6.33226Z" fill="#253C59"/>
<path d="M1 11.5L17.9202 18.4671C17.9711 18.4881 18.0285 18.4871 18.0787 18.4645L33.5 11.5M1 16L17.9183 23.464C17.9703 23.4869 18.0296 23.4866 18.0814 23.4633L33.5 16.5M33.047 6.70456L18.0787 13.4645C18.0285 13.4871 17.9711 13.4881 17.9202 13.4671L1.50389 6.70748C1.33172 6.63659 1.34133 6.38957 1.51847 6.33226L17.9355 1.02088C17.9773 1.00734 18.0225 1.00797 18.0639 1.02268L33.0316 6.3338C33.2014 6.39404 33.2112 6.63042 33.047 6.70456Z" stroke="#253C59"/>
</svg>