<svg width="19" height="17" viewBox="0 0 19 17" fill="none" xmlns="http://www.w3.org/2000/svg">
<path d="M0.99198 2.26672H2.83365V3.40006H1.13365V15.8667H17.0003V3.40006H15.3003V2.26672H17.142C17.2744 2.26894 17.4052 2.29723 17.5267 2.34997C17.6482 2.40272 17.7582 2.47889 17.8503 2.57413C17.9424 2.66938 18.0148 2.78183 18.0634 2.90507C18.112 3.02831 18.1359 3.15993 18.1336 3.29239V15.9744C18.1359 16.1069 18.112 16.2385 18.0634 16.3617C18.0148 16.4849 17.9424 16.5974 17.8503 16.6926C17.7582 16.7879 17.6482 16.8641 17.5267 16.9168C17.4052 16.9696 17.2744 16.9978 17.142 17.0001H0.99198C0.859515 16.9978 0.728783 16.9696 0.607252 16.9168C0.485721 16.8641 0.37577 16.7879 0.283682 16.6926C0.191593 16.5974 0.119171 16.4849 0.0705505 16.3617C0.0219296 16.2385 -0.00193653 16.1069 0.00031484 15.9744V3.29239C-0.00193653 3.15993 0.0219296 3.02831 0.0705505 2.90507C0.119171 2.78183 0.191593 2.66938 0.283682 2.57413C0.37577 2.47889 0.485721 2.40272 0.607252 2.34997C0.728783 2.29723 0.859515 2.26894 0.99198 2.26672Z" fill="#99B4BF"/>
<path d="M13.6001 6.80005H14.7334V7.93338H13.6001V6.80005Z" fill="#99B4BF"/>
<path d="M10.2007 6.80005H11.334V7.93338H10.2007V6.80005Z" fill="#99B4BF"/>
<path d="M6.80026 6.80005H7.93359V7.93338H6.80026V6.80005Z" fill="#99B4BF"/>
<path d="M3.39987 6.80005H4.5332V7.93338H3.39987V6.80005Z" fill="#99B4BF"/>
<path d="M13.6001 9.6333H14.7334V10.7666H13.6001V9.6333Z" fill="#99B4BF"/>
<path d="M10.2007 9.6333H11.334V10.7666H10.2007V9.6333Z" fill="#99B4BF"/>
<path d="M6.80026 9.6333H7.93359V10.7666H6.80026V9.6333Z" fill="#99B4BF"/>
<path d="M3.39987 9.6333H4.5332V10.7666H3.39987V9.6333Z" fill="#99B4BF"/>
<path d="M13.6001 12.4667H14.7334V13.6H13.6001V12.4667Z" fill="#99B4BF"/>
<path d="M10.2007 12.4667H11.334V13.6H10.2007V12.4667Z" fill="#99B4BF"/>
<path d="M6.80026 12.4667H7.93359V13.6H6.80026V12.4667Z" fill="#99B4BF"/>
<path d="M3.39987 12.4667H4.5332V13.6H3.39987V12.4667Z" fill="#99B4BF"/>
<path d="M13.6003 4.53333C13.45 4.53333 13.3059 4.47363 13.1996 4.36736C13.0934 4.26109 13.0337 4.11695 13.0337 3.96667V0.566666C13.0337 0.416377 13.0934 0.272243 13.1996 0.165973C13.3059 0.0597022 13.45 0 13.6003 0C13.7506 0 13.8947 0.0597022 14.001 0.165973C14.1073 0.272243 14.167 0.416377 14.167 0.566666V3.96667C14.167 4.11695 14.1073 4.26109 14.001 4.36736C13.8947 4.47363 13.7506 4.53333 13.6003 4.53333Z" fill="#99B4BF"/>
<path d="M4.53392 4.53333C4.38363 4.53333 4.2395 4.47363 4.13323 4.36736C4.02695 4.26109 3.96725 4.11695 3.96725 3.96667V0.566666C3.96725 0.416377 4.02695 0.272243 4.13323 0.165973C4.2395 0.0597022 4.38363 0 4.53392 0C4.68421 0 4.82834 0.0597022 4.93461 0.165973C5.04088 0.272243 5.10059 0.416377 5.10059 0.566666V3.96667C5.10059 4.11695 5.04088 4.26109 4.93461 4.36736C4.82834 4.47363 4.68421 4.53333 4.53392 4.53333Z" fill="#99B4BF"/>
<path d="M6.23372 2.26672H11.9004V3.40006H6.23372V2.26672Z" fill="#99B4BF"/>
</svg>
