<svg width="25" height="23" viewBox="0 0 25 23" fill="none" xmlns="http://www.w3.org/2000/svg">
<path fill-rule="evenodd" clip-rule="evenodd" d="M18 13H8V7H13H18V13ZM0 3H6V15H18V17.1841C19.163 17.5971 20 18.696 20 20C20 21.657 18.657 23 17 23C15.343 23 14 21.657 14 20C14 18.696 14.837 17.5971 16 17.1841V17H6V17.1841C7.163 17.5971 8 18.696 8 20C8 21.657 6.657 23 5 23C3.343 23 2 21.657 2 20C2 18.696 2.837 17.5971 4 17.1841V5H0V3ZM17 18.9509C16.453 19.1449 16 19.339 16 20C16 20.551 16.449 21 17 21C17.551 21 18 20.551 18 20C18 19.339 17.547 19.1449 17 18.9509ZM5 18.9509C4.453 19.1449 4 19.339 4 20C4 20.551 4.449 21 5 21C5.551 21 6 20.551 6 20C6 19.339 5.547 19.1449 5 18.9509Z" fill="black"/>
<path d="M20.5 0V4.5M20.5 9V4.5M20.5 4.5H16H25" stroke="black" stroke-width="1.5"/>
</svg>
