<svg width="20" height="20" viewBox="0 0 20 20" fill="none" xmlns="http://www.w3.org/2000/svg">
<path fill-rule="evenodd" clip-rule="evenodd" d="M18 10H8V4H13H18V10ZM0 0H6V12H18V14.1841C19.163 14.5971 20 15.696 20 17C20 18.657 18.657 20 17 20C15.343 20 14 18.657 14 17C14 15.696 14.837 14.5971 16 14.1841V14H6V14.1841C7.163 14.5971 8 15.696 8 17C8 18.657 6.657 20 5 20C3.343 20 2 18.657 2 17C2 15.696 2.837 14.5971 4 14.1841V2H0V0ZM17 15.9509C16.453 16.1449 16 16.339 16 17C16 17.551 16.449 18 17 18C17.551 18 18 17.551 18 17C18 16.339 17.547 16.1449 17 15.9509ZM5 15.9509C4.453 16.1449 4 16.339 4 17C4 17.551 4.449 18 5 18C5.551 18 6 17.551 6 17C6 16.339 5.547 16.1449 5 15.9509Z" fill="black"/>
</svg>
