<svg width="30" height="30" viewBox="0 0 30 30" fill="none" xmlns="http://www.w3.org/2000/svg">
<path d="M27.5482 7.19667H23.8077V2.84387C23.8077 2.15553 23.6057 1.62128 23.1756 1.29722C22.6989 0.94072 22.0433 0.916064 21.2736 1.16441L1.42143 7.09933C1.42144 7.09932 1.42141 7.09933 1.42143 7.09933C1.14515 7.18184 0.987188 7.45142 1.01018 7.72545C1.00676 7.73825 1 7.7648 1 7.79698V28.1692C1 28.9887 1.65128 29.6553 2.45192 29.6553H27.5482C28.3488 29.6553 29 28.9887 29 28.1692V8.68273C29 7.86327 28.3488 7.19667 27.5482 7.19667ZM21.6132 2.31386L21.6161 2.31294C21.8404 2.24083 22.0315 2.20471 22.1825 2.20078C22.3367 2.19675 22.4306 2.22662 22.4808 2.26454C22.5282 2.30008 22.5702 2.37255 22.5983 2.48688C22.6257 2.59783 22.6348 2.72623 22.6348 2.84387V7.19667H5.2805L21.6132 2.31386ZM27.8271 22.2544H19.7597C19.6064 22.2544 19.4808 22.1263 19.4808 21.9691V14.883C19.4808 14.7257 19.6064 14.5976 19.7597 14.5976H27.8271V22.2544ZM27.5482 28.4546H2.45192C2.29869 28.4546 2.17304 28.3266 2.17304 28.1692V8.39731H27.5482C27.7014 8.39731 27.8271 8.52543 27.8271 8.68273V13.3969H19.7597C18.9591 13.3969 18.3078 14.0635 18.3078 14.883V21.9691C18.3078 22.7884 18.9591 23.455 19.7597 23.455H27.8271V28.1692C27.8271 28.3266 27.7014 28.4546 27.5482 28.4546Z" fill="#99B4BF"/>
<path d="M1.42143 7.09933L21.2736 1.16441C22.0433 0.916064 22.6989 0.94072 23.1756 1.29722C23.6057 1.62128 23.8077 2.15553 23.8077 2.84387V7.19667H27.5482C28.3488 7.19667 29 7.86327 29 8.68273V28.1692C29 28.9887 28.3488 29.6553 27.5482 29.6553H2.45192C1.65128 29.6553 1 28.9887 1 28.1692V7.79698C1 7.7648 1.00676 7.73825 1.01018 7.72545C0.987188 7.45142 1.14515 7.18184 1.42143 7.09933ZM1.42143 7.09933C1.42141 7.09933 1.42144 7.09932 1.42143 7.09933ZM21.6132 2.31386L21.6161 2.31294C21.8404 2.24083 22.0315 2.20471 22.1825 2.20078C22.3367 2.19675 22.4306 2.22662 22.4808 2.26454C22.5282 2.30008 22.5702 2.37255 22.5983 2.48688C22.6257 2.59783 22.6348 2.72623 22.6348 2.84387V7.19667H5.2805L21.6132 2.31386ZM27.8271 22.2544H19.7597C19.6064 22.2544 19.4808 22.1263 19.4808 21.9691V14.883C19.4808 14.7257 19.6064 14.5976 19.7597 14.5976H27.8271V22.2544ZM27.5482 28.4546H2.45192C2.29869 28.4546 2.17304 28.3266 2.17304 28.1692V8.39731H27.5482C27.7014 8.39731 27.8271 8.52543 27.8271 8.68273V13.3969H19.7597C18.9591 13.3969 18.3078 14.0635 18.3078 14.883V21.9691C18.3078 22.7884 18.9591 23.455 19.7597 23.455H27.8271V28.1692C27.8271 28.3266 27.7014 28.4546 27.5482 28.4546Z" stroke="#99B4BF" stroke-width="0.2"/>
<path d="M23.0929 20.4478C24.2102 20.4478 25.1204 19.5174 25.1204 18.3736C25.1204 17.23 24.2103 16.2986 23.0929 16.2986C21.9755 16.2986 21.0664 17.2291 21.0664 18.3736C21.0664 19.5182 21.9748 20.4478 23.0929 20.4478ZM23.0929 17.5001C23.5644 17.5001 23.9473 17.8919 23.9473 18.3745C23.9473 18.8569 23.5646 19.248 23.0929 19.248C22.6224 19.248 22.2395 18.8562 22.2395 18.3745C22.2395 17.8926 22.6225 17.5001 23.0929 17.5001Z" fill="#99B4BF" stroke="#99B4BF" stroke-width="0.2"/>
</svg>
